<svg width="230" height="215" viewBox="0 0 230 215" fill="none" xmlns="http://www.w3.org/2000/svg">
<path d="M51.963 117.3C51.963 117.3 52.058 110.807 53.579 102.395M53.579 102.395C54.752 95.906 57.263 88.382 58.197 81.151M53.579 102.395L58.197 81.151M61.76 49.484C64.3 45.925 105.303 39.06 105.303 39.06M61.76 49.484C60.497 51.254 60.32 64.729 58.197 81.151M61.76 49.484C61.76 49.484 65.059 75.609 63.871 88.408C62.684 101.207 70.601 126.937 70.601 126.937" stroke="#E6E6E6" stroke-width="1.649"/>
<path d="M66.642 112.027C66.642 112.027 55.031 110.18 49.621 119.944C47.261 124.202 46.192 137.53 48.961 141.979C54.051 150.16 60.441 143.035 60.441 143.035M130.784 37.975C130.784 37.975 138.817 37.476 149.241 41.699C159.665 45.921 160.985 45.116 167.054 50.275C173.124 55.435 173.124 67.033 173.124 67.033" stroke="#E6E6E6" stroke-width="1.649"/>
<path d="M168.001 50.664C168.001 50.664 158.346 88.408 158.478 108.464C158.61 128.52 151.089 150.688 151.089 150.688" stroke="#E6E6E6" stroke-width="1.649"/>
<path d="M168.16 72.0512C168.024 68.1191 169.255 64.8848 170.91 64.8273C172.565 64.7698 174.018 67.9107 174.155 71.8428C174.291 75.7749 173.06 79.0092 171.405 79.0667C169.75 79.1242 168.297 75.9833 168.16 72.0512Z" fill="#090909" stroke="#E6E6E6" stroke-width="1.649"/>
<path d="M93 176C93 176 77 179.5 75 170.5C73 161.5 72.5 146.5 73.5 140C74.5 133.5 73.5 150.5 75.5 152.403C77.5 154.306 79.989 153.522 82.5 154C84 154.285 113.022 152.403 113.022 152.403L93 176Z" fill="#E6E6E6"/>
<path d="M85.3547 170.639C83.9191 170.951 82.5888 170.436 82.3834 169.49C82.178 168.544 83.1754 167.524 84.611 167.213C86.0467 166.901 87.377 167.416 87.5823 168.362C87.7877 169.308 86.7904 170.327 85.3547 170.639Z" fill="black" stroke="#E6E6E6" stroke-width="1.649"/>
<path d="M135.285 173.055C136.272 174.143 136.492 175.552 135.775 176.203C135.059 176.854 133.677 176.5 132.689 175.413C131.702 174.325 131.482 172.916 132.199 172.265C132.915 171.614 134.297 171.968 135.285 173.055Z" fill="#090909" stroke="#E6E6E6" stroke-width="1.649"/>
<path d="M86.4103 174.07C84.9746 174.381 83.6443 173.867 83.439 172.921C83.2336 171.975 84.2309 170.955 85.6666 170.644C87.1022 170.332 88.4325 170.846 88.6379 171.792C88.8433 172.739 87.8459 173.758 86.4103 174.07Z" fill="#090909" stroke="#E6E6E6" stroke-width="1.649"/>
<path d="M137.728 170.426C138.716 171.513 138.935 172.922 138.219 173.573C137.502 174.224 136.12 173.87 135.133 172.783C134.145 171.695 133.925 170.286 134.642 169.635C135.359 168.984 136.74 169.338 137.728 170.426Z" fill="#090909" stroke="#E6E6E6" stroke-width="1.649"/>
<path d="M88.4552 180.931C87.0196 181.242 85.6893 180.728 85.4839 179.782C85.2785 178.836 86.2759 177.816 87.7115 177.505C89.1471 177.193 90.4775 177.707 90.6828 178.653C90.8882 179.599 89.8909 180.619 88.4552 180.931Z" fill="#090909" stroke="#E6E6E6" stroke-width="1.649"/>
<path d="M87.7298 177.501C86.2941 177.812 84.9638 177.298 84.7584 176.352C84.5531 175.406 85.5504 174.386 86.9861 174.075C88.4217 173.763 89.752 174.277 89.9574 175.223C90.1627 176.17 89.1654 177.189 87.7298 177.501Z" fill="#090909" stroke="#E6E6E6" stroke-width="1.649"/>
<path d="M140.038 167.568C141.026 168.656 141.246 170.065 140.529 170.716C139.812 171.367 138.431 171.013 137.443 169.925C136.455 168.838 136.236 167.429 136.952 166.778C137.669 166.127 139.051 166.481 140.038 167.568Z" fill="#090909" stroke="#E6E6E6" stroke-width="1.649"/>
<path d="M181.437 88.507C181.437 88.507 179.622 85.373 176.62 83.328C173.619 81.283 170.716 83.559 170.716 83.559C168.693 80.185 165.902 77.553 164.481 78.405C163.06 79.257 163.548 82.683 165.572 86.058C167.595 89.432 168.836 93.026 175.136 93.554C181.437 94.082 184.999 95.665 189.09 91.443C193.18 87.221 191.069 77.259 191.069 77.259" stroke="#E6E6E6" stroke-width="1.649"/>
<path d="M176.129 70.2048C175.985 66.0542 177.056 62.6481 178.521 62.5971C179.986 62.5462 181.291 65.8697 181.436 70.0204C181.58 74.171 180.509 77.5771 179.044 77.6281C177.578 77.679 176.273 74.3555 176.129 70.2048Z" fill="#090909" stroke="#E6E6E6" stroke-width="1.649"/>
<path d="M173.608 112.36C165.255 111.181 158.744 108.385 159.064 106.114C159.385 103.844 166.416 102.959 174.768 104.137C183.121 105.316 189.633 108.112 189.312 110.383C188.992 112.653 181.961 113.538 173.608 112.36Z" fill="black" stroke="#E6E6E6" stroke-width="1.649"/>
<path d="M157.87 118.579C157.55 120.849 165.075 120.603 172.415 124.824C189.353 131.291 189.033 112.582 189.353 110.312" stroke="#E6E6E6" stroke-width="1.649"/>
<path d="M182.626 69.8442C183.196 66.0892 184.833 63.2237 186.283 63.4438C187.733 63.664 188.446 66.8865 187.876 70.6415C187.305 74.3965 185.668 77.2621 184.218 77.0419C182.768 76.8218 182.056 73.5993 182.626 69.8442Z" fill="#090909" stroke="#E6E6E6" stroke-width="1.649"/>
<path d="M188.38 71.7301C188.862 68.5527 190.277 66.1325 191.54 66.3243C192.803 66.5161 193.436 69.2473 192.953 72.4246C192.471 75.6019 191.056 78.0222 189.793 77.8304C188.53 77.6386 187.897 74.9074 188.38 71.7301Z" fill="#090909" stroke="#E6E6E6" stroke-width="1.649"/>
<path d="M184.735 124.166C184.735 124.166 181.437 132.215 177.874 135.778C174.311 139.34 169.297 141.715 164.415 142.639C159.533 143.562 155.443 133.93 155.443 133.93M189.353 77.621L184.372 77.127L179.193 77.621L171.87 79.073L168.683 81.506" stroke="#E6E6E6" stroke-width="1.649"/>
<path d="M172.478 73.642L171.263 73.708M172.544 70.476L171.329 70.541M180.197 72.785L178.982 72.85M180.197 70.146L178.982 70.211M187.486 69.496L186.308 69.196M186.52 72.543L185.342 72.243M189.594 84.749L184.573 85.187M191.666 73.797L190.488 73.497M192.524 71.751L191.346 71.451" stroke="#E6E6E6" stroke-width="1.649" stroke-linecap="round"/>
<path d="M166.724 88.408L170.551 92.565L177.676 93.686H186.517L191.135 88.804L185.329 112.555H173.52L160.589 108.53C160.589 108.53 164.943 103.648 165.735 99.228C166.527 94.808 166.724 88.408 166.724 88.408Z" fill="#E6E6E6"/>
<path d="M75.807 51.59C75.807 51.59 79.441 52.65 84.455 53.31C89.469 53.97 93.423 52.19 93.423 52.19M148.057 51.24C148.057 51.24 150.226 51.31 153.201 51.41C156.177 51.509 158.478 51.595 158.478 51.595" stroke="#E6E6E6" stroke-width="1.649" stroke-linecap="round"/>
<path d="M102.504 50.454C102.504 50.454 94.483 53.574 89.864 66.504C85.248 79.437 87.99 86.08 87.99 86.08L102.504 78.776M133.869 49.651C133.869 49.651 138.949 51.859 143.568 64.79C148.186 77.72 142.908 90.783 142.908 90.783L127.866 82.207M147.5 98C146.466 95.104 131.5 96.5 131.5 96.5C131.5 96.5 131 111.5 132 113C133 114.5 146.5 113.5 146.5 113.5C146.5 113.5 148.534 100.896 147.5 98Z" stroke="#E6E6E6" stroke-width="1.649"/>
<path d="M102.295 59.412C102.295 59.412 99.155 72.047 102.295 78.908C105.435 85.769 112.878 94.346 113.906 96.193C114.935 98.04 115.991 103.318 115.991 103.318C115.991 103.318 119.157 109.52 119.025 110.971C118.893 112.423 114.011 121.395 111.768 132.479C109.525 143.563 113.906 155.075 113.906 155.075" stroke="#E6E6E6" stroke-width="1.649"/>
<path d="M115.925 103.714C115.925 103.714 123.907 96.721 124.831 92.763C125.755 88.804 128.526 82.734 128.526 82.734C128.526 82.734 134.217 76.005 135.519 69.012C136.821 62.019 134.217 53.422 134.217 53.422" stroke="#E6E6E6" stroke-width="1.649"/>
<path d="M109.723 99.657C110.397 99.657 110.944 99.1103 110.944 98.436C110.944 97.7617 110.397 97.215 109.723 97.215C109.049 97.215 108.502 97.7617 108.502 98.436C108.502 99.1103 109.049 99.657 109.723 99.657Z" stroke="#E6E6E6" stroke-width="1.649"/>
<path d="M115.331 112.852C116.005 112.852 116.552 112.305 116.552 111.631C116.552 110.957 116.005 110.41 115.331 110.41C114.657 110.41 114.11 110.957 114.11 111.631C114.11 112.305 114.657 112.852 115.331 112.852Z" stroke="#E6E6E6" stroke-width="1.649"/>
<path d="M110.383 124.991C111.057 124.991 111.604 124.444 111.604 123.77C111.604 123.096 111.057 122.549 110.383 122.549C109.709 122.549 109.162 123.096 109.162 123.77C109.162 124.444 109.709 124.991 110.383 124.991Z" stroke="#E6E6E6" stroke-width="1.649"/>
<path d="M107.348 138.318C108.022 138.318 108.569 137.771 108.569 137.097C108.569 136.423 108.022 135.876 107.348 135.876C106.674 135.876 106.127 136.423 106.127 137.097C106.127 137.771 106.674 138.318 107.348 138.318Z" stroke="#E6E6E6" stroke-width="1.649"/>
<path d="M121.796 116.843H77.197C76.3956 116.843 75.746 117.493 75.746 118.294V147.719C75.746 148.52 76.3956 149.17 77.197 149.17H121.796C122.597 149.17 123.247 148.52 123.247 147.719V118.294C123.247 117.493 122.597 116.843 121.796 116.843Z" fill="#84C2FF" stroke="#E6E6E6" stroke-width="3.299"/>
<path d="M77.8835 129.881C80.5461 129.638 82.7941 130.422 82.9046 131.633C83.0152 132.843 80.9464 134.022 78.2839 134.265C75.6214 134.508 73.3733 133.724 73.2628 132.513C73.1522 131.303 75.221 130.124 77.8835 129.881Z" fill="#090909" stroke="#E6E6E6" stroke-width="1.649"/>
<path d="M78.2625 135.168C80.9251 134.925 83.1621 135.589 83.2591 136.651C83.3561 137.713 81.2763 138.771 78.6138 139.014C75.9512 139.257 73.7142 138.594 73.6172 137.532C73.5202 136.47 75.6 135.411 78.2625 135.168Z" fill="#090909" stroke="#E6E6E6" stroke-width="1.649"/>
<path d="M79.0363 139.878C81.4541 139.658 83.4927 140.34 83.5897 141.402C83.6867 142.464 81.8053 143.504 79.3875 143.724C76.9697 143.945 74.9311 143.263 74.8341 142.201C74.7371 141.139 76.6185 140.099 79.0363 139.878Z" fill="#090909" stroke="#E6E6E6" stroke-width="1.649"/>
<path d="M78.3721 144.81C80.2938 144.634 81.9036 145.061 81.9677 145.763C82.0318 146.465 80.5259 147.176 78.6042 147.351C76.6825 147.527 75.0727 147.1 75.0086 146.398C74.9445 145.697 76.4504 144.985 78.3721 144.81Z" fill="#090909" stroke="#E6E6E6" stroke-width="1.649"/>
<path d="M77.536 131.245L77.849 132.421M77.14 136.325L77.453 137.501M79.054 140.745L79.367 141.921M77.932 144.505L78.245 145.681" stroke="#E6E6E6" stroke-width="1.649" stroke-linecap="round"/>
<path d="M68.753 120.867L73.635 131.093C73.635 131.093 79.969 147.257 72.778 148.247C65.586 149.236 59.385 143.562 59.385 143.562C59.385 143.562 49.093 145.806 51.336 129.312C53.579 112.819 68.753 120.867 68.753 120.867Z" fill="#E6E6E6"/>
<path d="M68.753 125.914L75.219 127.399V131.093H68.753V125.914Z" fill="#E6E6E6"/>
<path d="M99.365 137.493C101.369 137.493 102.994 135.868 102.994 133.864C102.994 131.86 101.369 130.235 99.365 130.235C97.3608 130.235 95.736 131.86 95.736 133.864C95.736 135.868 97.3608 137.493 99.365 137.493Z" fill="#090909"/>
<path d="M183.545 102.963L182.664 107.61" stroke="#090909" stroke-width="1.649" stroke-linecap="round"/>
<path d="M59.78 124.958C59.78 124.958 57.75 125.09 56.522 127.861C55.295 130.632 56.522 132.35 56.522 132.35" stroke="black" stroke-width="1.649" stroke-linecap="round"/>
<path d="M85.247 166.389C85.247 166.389 123.709 147.521 133.869 145.805C144.029 144.09 150.033 144.354 152.144 151.017C154.255 157.681 153.2 165.001 143.634 169.226C134.067 173.452 90.789 180.508 90.789 180.508C90.789 180.508 89.733 177.77 88.875 173.218C88.018 168.665 85.247 166.389 85.247 166.389Z" fill="#E6E6E6"/>
<path d="M107.02 153.617C107.02 153.617 112.759 149.522 120.808 155.955C128.856 162.389 135.107 168.011 131.545 174.025C127.982 180.039 125.001 170.591 115.477 166.272C105.952 161.954 81.948 171.089 81.948 171.089L107.02 153.617ZM100.882 72.112C100.882 72.112 111.174 75.279 118.3 74.817C125.425 74.356 135.288 70.167 135.288 70.167L132.88 77.258L127.239 85.142L125.029 93.125L116.518 103.252L114.176 96.754L100.882 77.258V72.112Z" fill="#E6E6E6"/>
<path d="M137.432 49.221C137.432 66.674 128.098 72.84 116.584 72.84C105.07 72.84 95.737 66.674 95.737 49.22C97.386 30.879 99.497 15.426 116.584 15.309C133.671 15.192 135.783 31.671 137.432 49.221Z" fill="#E6E6E6"/>
<path d="M118.277 13.264L115.031 18.093L113.747 15.563L118.277 13.263V13.264Z" fill="#E6E6E6"/>
<path d="M120.586 13L117.34 17.829L116.056 15.299L120.586 13Z" fill="#E6E6E6"/>
<path d="M122.829 13.132L119.584 17.961L118.3 15.431L122.829 13.132Z" fill="#E6E6E6"/>
<path d="M104.292 44.21C104.292 44.21 115.733 43.16 116.606 42.356C117.479 41.553 117.588 41.033 118.478 40.502C119.368 39.97 129.011 39.822 129.011 39.822" stroke="black" stroke-width="1.979"/>
<path d="M124.6 46.383C125.893 46.383 126.942 45.8659 126.942 45.228C126.942 44.5901 125.893 44.073 124.6 44.073C123.307 44.073 122.258 44.5901 122.258 45.228C122.258 45.8659 123.307 46.383 124.6 46.383Z" fill="black"/>
<path d="M108.634 48.297C109.927 48.297 110.976 47.7799 110.976 47.142C110.976 46.5041 109.927 45.987 108.634 45.987C107.341 45.987 106.292 46.5041 106.292 47.142C106.292 47.7799 107.341 48.297 108.634 48.297Z" fill="black"/>
<path d="M116.65 67.033C121.824 67.033 126.018 63.6657 126.018 59.512C126.018 55.3583 121.824 51.991 116.65 51.991C111.476 51.991 107.282 55.3583 107.282 59.512C107.282 63.6657 111.476 67.033 116.65 67.033Z" fill="black"/>
<path fill-rule="evenodd" clip-rule="evenodd" d="M139.063 56.945C137.446 59.5096 135.615 61.9329 133.589 64.189C131.51 66.5012 129.206 68.6003 126.711 70.455C125.357 71.4585 123.716 72.0001 122.031 72H110.482C108.795 72.0003 107.153 71.4575 105.799 70.452C103.307 68.5975 101.006 66.4994 98.929 64.189C96.9071 61.9375 95.0777 59.5204 93.46 56.963C92.2019 54.9828 91.733 52.6024 92.146 50.293C93.25 44.127 94.509 38.521 95.922 33.474C97.221 28.837 99.266 22.774 102.057 15.289C102.803 13.2868 104.144 11.5606 105.899 10.3419C107.654 9.12308 109.74 8.46995 111.877 8.47H119.59L120.373 9.94L124.49 8L124.863 10.716L128.413 11.154C129.665 13.654 130.308 14.953 130.344 15.05C133.187 22.71 135.27 28.855 136.593 33.489C138.019 38.477 139.28 44.084 140.378 50.306C140.784 52.6059 140.315 54.9734 139.063 56.945Z" fill="#E6E6E6"/>
<path fill-rule="evenodd" clip-rule="evenodd" d="M130.4 36.966C131.469 37.043 132.491 37.168 133.062 37.358C133.8 37.604 134.319 37.901 134.653 38.292C134.984 38.679 135.161 39.182 135.161 39.895C135.161 40.645 135.115 42.055 134.632 43.464C134.151 44.867 133.244 46.249 131.529 46.984C129.819 47.717 127.854 47.72 126.078 47.72C125.868 47.72 125.021 47.605 124.041 47.144C123.066 46.688 121.978 45.9 121.254 44.571C120.074 42.408 120.112 40.231 120.269 39.441L120.271 39.431L120.272 39.421C120.336 38.917 121.164 37.514 124.343 37.116C125.623 36.956 126.85 36.866 127.592 36.866C128.26 36.866 129.338 36.892 130.4 36.966ZM102.12 36.966C101.049 37.043 100.029 37.168 99.457 37.358C98.72 37.604 98.201 37.901 97.866 38.292C97.536 38.679 97.359 39.182 97.359 39.895C97.359 40.645 97.405 42.055 97.888 43.464C98.368 44.867 99.276 46.249 100.99 46.984C102.7 47.717 104.666 47.72 106.442 47.72C106.652 47.72 107.498 47.605 108.48 47.144C109.453 46.688 110.541 45.9 111.267 44.571C112.446 42.408 112.408 40.231 112.249 39.441L112.247 39.431L112.246 39.421C112.184 38.917 111.356 37.514 108.177 37.116C106.896 36.956 105.67 36.866 104.927 36.866C104.26 36.866 103.181 36.892 102.12 36.966ZM103.059 35.37C106.849 35.37 109.174 35.37 111.753 36.136C113.742 36.726 115.569 37.042 116.26 37.13C116.951 37.042 118.776 36.727 120.767 36.136C123.347 35.37 125.67 35.37 129.462 35.37H129.49C132.557 35.37 136.215 35.706 137.661 35.875L137.677 35.876L138.904 36.18V38.495L138.066 39.325C137.841 39.547 137.311 40.258 137.117 41.21C137.09 41.347 137.061 41.515 137.028 41.704V41.705C136.919 42.348 136.765 43.255 136.44 44.17C136.017 45.367 135.289 46.622 133.946 47.42C131.354 48.958 129.272 49.218 127.709 49.218H127.703C126.941 49.218 125.839 49.218 124.701 48.993C123.559 48.766 122.361 48.309 121.423 47.383C119.618 45.595 118.831 44.05 118.563 43.254C118.307 42.496 117.965 41.573 117.813 41.273C117.79 41.2262 117.767 41.1795 117.744 41.133C117.635 40.908 117.532 40.697 117.353 40.52C117.152 40.322 116.838 40.153 116.26 40.153C115.681 40.153 115.368 40.323 115.168 40.52C114.987 40.697 114.885 40.908 114.776 41.134C114.753 41.179 114.731 41.226 114.706 41.273C114.555 41.573 114.213 42.496 113.957 43.254C113.689 44.05 112.902 45.594 111.097 47.382C110.158 48.31 108.96 48.766 107.818 48.993C106.681 49.218 105.578 49.218 104.817 49.218H104.81C103.247 49.218 101.165 48.958 98.573 47.42C97.231 46.622 96.503 45.367 96.079 44.17C95.754 43.255 95.601 42.348 95.49 41.705C95.458 41.515 95.43 41.347 95.402 41.21C95.21 40.258 94.678 39.547 94.454 39.324L93.616 38.495V36.18L94.842 35.876L94.859 35.874C96.305 35.706 99.962 35.37 103.03 35.37H103.059Z" fill="#090909"/>
<path d="M106.692 38.74C107.089 38.74 107.47 38.8977 107.751 39.1785C108.031 39.4592 108.189 39.84 108.189 40.237C108.189 40.634 108.031 41.0148 107.751 41.2955C107.47 41.5763 107.089 41.734 106.692 41.734C106.302 41.7239 105.931 41.5618 105.659 41.2823C105.386 41.0027 105.234 40.6278 105.234 40.2375C105.234 39.8472 105.386 39.4723 105.659 39.1927C105.931 38.9132 106.302 38.7501 106.692 38.74ZM124.533 39.356C124.312 39.6776 124.225 40.0728 124.291 40.4574C124.357 40.8421 124.57 41.1859 124.886 41.4156C125.201 41.6453 125.594 41.7429 125.98 41.6875C126.366 41.6321 126.716 41.4281 126.954 41.119C127.188 40.798 127.284 40.3972 127.223 40.0049C127.161 39.6125 126.946 39.2608 126.625 39.027C126.304 38.7932 125.903 38.6965 125.511 38.7582C125.119 38.8199 124.767 39.035 124.533 39.356Z" fill="black"/>
<path fill-rule="evenodd" clip-rule="evenodd" d="M116.389 60.254C113.178 60.2724 109.976 60.6131 106.833 61.271C107.146 62.2998 107.686 63.2448 108.415 64.0354C109.144 64.826 110.042 65.4419 111.042 65.837L111.733 66.112C114.642 67.2598 117.879 67.2598 120.788 66.112L121.48 65.837C122.511 65.4292 123.433 64.7871 124.173 63.9614C124.913 63.1358 125.451 62.1493 125.744 61.08C122.66 60.4974 119.527 60.2208 116.389 60.254ZM116.366 58.362C120.393 58.34 124.226 58.742 127.787 59.568C127.83 59.382 127.865 59.176 127.882 58.928L127.698 57.094C127.474 54.852 126.371 52.8 124.508 51.297L124.972 50.679C125.428 50.0721 125.692 49.3429 125.73 48.585C125.77 47.8275 125.582 47.0754 125.192 46.425C124.4 45.105 122.974 44.289 121.359 44.289C119.89 44.289 118.472 44.833 117.167 45.951C116.67 46.164 116.093 46.134 115.317 45.827C114.213 44.8272 112.774 44.2784 111.285 44.289C109.739 44.289 108.308 45.099 107.514 46.425C107.131 47.0624 106.943 47.7978 106.972 48.5408C107.002 49.2838 107.248 50.0019 107.68 50.607L108.015 51.384C107.118 52.0646 106.371 52.923 105.82 53.9055C105.27 54.888 104.929 55.9734 104.817 57.094L104.637 59.284C104.653 59.464 104.697 59.632 104.752 59.793C108.365 58.877 112.271 58.395 116.366 58.362Z" fill="#090909"/>
<path d="M104.801 59.865C105.026 59.807 105.262 59.768 105.488 59.715C105.423 59.6005 105.376 59.4762 105.35 59.347L105.528 57.169C105.632 56.1467 105.944 55.1566 106.447 54.2602C106.949 53.3638 107.63 52.5802 108.448 51.958C108.575 51.8614 108.667 51.7249 108.707 51.5703C108.748 51.4157 108.736 51.2519 108.673 51.105L108.337 50.328C108.317 50.2811 108.292 50.2365 108.262 50.195C107.911 49.7033 107.711 49.1199 107.687 48.5163C107.663 47.9127 107.815 47.3152 108.126 46.797C108.455 46.2532 108.919 45.8033 109.472 45.4903C110.025 45.1774 110.649 45.012 111.285 45.01C112.596 45.0018 113.862 45.484 114.835 46.362C114.899 46.4193 114.973 46.465 115.053 46.497C115.999 46.87 116.758 46.908 117.448 46.614C117.515 46.5851 117.578 46.5468 117.634 46.5C118.786 45.51 120.039 45.01 121.359 45.01C122.702 45.01 123.905 45.678 124.577 46.797C124.896 47.328 125.048 47.937 125.015 48.554C124.984 49.1691 124.77 49.761 124.401 50.254L123.935 50.874C123.824 51.0225 123.775 51.2083 123.798 51.3923C123.82 51.5763 123.914 51.7443 124.058 51.861C125.739 53.216 126.781 55.1 126.987 57.169L127.168 58.884C127.152 59.124 127.12 59.311 127.08 59.471C127.422 59.542 127.772 59.6 128.108 59.68L128.464 59.765C128.527 59.495 128.574 59.201 128.595 58.863L128.41 57.026C128.188 54.799 127.154 52.753 125.48 51.199L125.545 51.113C126.086 50.3923 126.4 49.5262 126.445 48.626C126.492 47.7267 126.269 46.8339 125.805 46.062C124.871 44.506 123.209 43.579 121.359 43.579C119.726 43.579 118.192 44.169 116.798 45.332C116.587 45.397 116.27 45.421 115.695 45.211C114.471 44.1508 112.904 43.5709 111.285 43.579C110.402 43.5816 109.535 43.8114 108.767 44.2463C107.999 44.6812 107.356 45.3065 106.9 46.062C106.453 46.8076 106.23 47.6658 106.258 48.5345C106.285 49.4031 106.561 50.2457 107.053 50.962L107.143 51.175C105.419 52.6706 104.332 54.7683 104.103 57.039L103.925 59.354C103.946 59.594 104.008 59.823 104.087 60.046L104.801 59.865Z" fill="#E6E6E6"/>
<path fill-rule="evenodd" clip-rule="evenodd" d="M111.334 46.934L111.575 46.924C112.067 46.9042 112.555 47.0169 112.989 47.2503C113.422 47.4838 113.785 47.8294 114.039 48.251L114.961 49.783C115.08 49.9813 115.133 50.2124 115.113 50.4428C115.092 50.6733 114.999 50.8912 114.846 51.0652C114.694 51.2392 114.49 51.3602 114.264 51.4109C114.038 51.4615 113.802 51.4391 113.59 51.347L112.777 50.994L110.953 50.262C110.582 50.1134 110.27 49.8481 110.064 49.5064C109.858 49.1647 109.768 48.7651 109.809 48.368C109.889 47.578 110.54 46.966 111.334 46.934ZM121.405 46.826L121.164 46.816C120.672 46.7964 120.184 46.9092 119.751 47.1426C119.317 47.376 118.954 47.7215 118.7 48.143L117.778 49.673C117.659 49.8712 117.606 50.102 117.627 50.3322C117.648 50.5624 117.741 50.7801 117.893 50.9541C118.045 51.1281 118.248 51.2494 118.474 51.3006C118.699 51.3518 118.935 51.3302 119.147 51.239L119.962 50.886L121.785 50.154C122.156 50.0052 122.468 49.7398 122.674 49.398C122.881 49.0561 122.971 48.6563 122.93 48.259C122.891 47.8766 122.715 47.5211 122.435 47.2579C122.155 46.9947 121.789 46.8413 121.405 46.826Z" fill="#E6E6E6"/>
<path d="M114 215C156.526 215 191 212.314 191 209C191 205.686 156.526 203 114 203C71.4741 203 37 205.686 37 209C37 212.314 71.4741 215 114 215Z" fill="#E6E6E6"/>
<path d="M149.5 1.5V25.5M163.5 1.5V25.5M172.5 12.5V25.5M172.5 6.5V7.5M161.5 14.5H149.5" stroke="#84C2FF" stroke-width="3" stroke-linecap="round"/>
<path d="M134.447 153.027L126.027 155.553" stroke="#090909" stroke-width="1.65" stroke-linecap="round"/>
<path d="M102 154.5C102 156.985 95.732 159 88 159C80.268 159 74 156.985 74 154.5C72.5 148.5 80.268 150 88 150C95.732 150 102 152.015 102 154.5Z" fill="#E6E6E6"/>
<path d="M140 101C140.552 101 141 100.552 141 100C141 99.4477 140.552 99 140 99C139.448 99 139 99.4477 139 100C139 100.552 139.448 101 140 101Z" fill="#E6E6E6"/>
<path d="M72 64.199L73.047 65.303L73.153 65.413L73.291 65.479L74.664 66.134L73.938 67.472L73.865 67.606L73.845 67.758L73.647 69.266L72.15 68.989L72 68.961L71.85 68.989L70.353 69.266L70.155 67.758L70.135 67.606L70.062 67.472L69.336 66.134L70.709 65.479L70.847 65.414L70.953 65.303L72 64.199ZM84 93.199L85.047 94.303L85.153 94.413L85.291 94.479L86.664 95.134L85.938 96.472L85.865 96.606L85.845 96.758L85.647 98.266L84.15 97.989L84 97.961L83.85 97.989L82.353 98.266L82.155 96.758L82.135 96.606L82.062 96.472L81.336 95.134L82.709 94.479L82.847 94.414L82.953 94.303L84 93.199ZM74 88.199L75.047 89.303L75.153 89.413L75.291 89.479L76.664 90.134L75.938 91.472L75.865 91.606L75.845 91.758L75.647 93.266L74.15 92.989L74 92.961L73.85 92.989L72.353 93.266L72.155 91.758L72.135 91.606L72.062 91.472L71.336 90.134L72.709 89.479L72.847 89.414L72.953 89.303L74 88.199ZM80 71.199L81.047 72.303L81.153 72.413L81.291 72.479L82.664 73.134L81.938 74.472L81.865 74.606L81.845 74.758L81.647 76.266L80.15 75.989L80 75.961L79.85 75.989L78.353 76.266L78.155 74.758L78.135 74.606L78.062 74.472L77.336 73.134L78.709 72.479L78.847 72.414L78.953 72.303L80 71.199ZM103 104.199L104.047 105.303L104.153 105.414L104.291 105.479L105.664 106.134L104.938 107.471L104.865 107.606L104.845 107.758L104.647 109.266L103.15 108.989L103 108.961L102.85 108.989L101.353 109.266L101.155 107.758L101.135 107.606L101.062 107.471L100.336 106.134L101.709 105.479L101.847 105.414L101.953 105.303L103 104.199ZM82 104.199L83.047 105.303L83.153 105.414L83.291 105.479L84.664 106.134L83.938 107.471L83.865 107.606L83.845 107.758L83.647 109.266L82.15 108.989L82 108.961L81.85 108.989L80.353 109.266L80.155 107.758L80.135 107.606L80.062 107.471L79.336 106.134L80.709 105.479L80.847 105.414L80.953 105.303L82 104.199ZM99 87.199L100.047 88.303L100.153 88.413L100.291 88.479L101.664 89.134L100.938 90.472L100.865 90.606L100.845 90.758L100.647 92.266L99.15 91.989L99 91.961L98.85 91.989L97.353 92.266L97.155 90.758L97.135 90.606L97.062 90.472L96.336 89.134L97.709 88.479L97.847 88.414L97.953 88.303L99 87.199ZM84 58.199L85.047 59.303L85.153 59.413L85.291 59.479L86.664 60.134L85.938 61.471L85.865 61.606L85.845 61.758L85.647 63.266L84.15 62.989L84 62.961L83.85 62.989L82.353 63.266L82.155 61.758L82.135 61.606L82.062 61.471L81.336 60.134L82.709 59.479L82.847 59.414L82.953 59.303L84 58.199ZM160 55.199L161.047 56.303L161.153 56.413L161.291 56.479L162.664 57.134L161.938 58.471L161.865 58.606L161.845 58.758L161.647 60.266L160.15 59.989L160 59.961L159.85 59.989L158.353 60.266L158.155 58.758L158.135 58.606L158.062 58.471L157.336 57.134L158.709 56.479L158.847 56.414L158.953 56.303L160 55.199ZM154 74.199L155.047 75.303L155.153 75.413L155.291 75.479L156.664 76.134L155.938 77.472L155.865 77.606L155.845 77.758L155.647 79.266L154.15 78.989L154 78.961L153.85 78.989L152.353 79.266L152.155 77.758L152.135 77.606L152.062 77.472L151.336 76.134L152.709 75.479L152.847 75.414L152.953 75.303L154 74.199ZM150 63.199L151.047 64.303L151.153 64.413L151.291 64.479L152.664 65.134L151.938 66.472L151.865 66.606L151.845 66.758L151.647 68.266L150.15 67.989L150 67.961L149.85 67.989L148.353 68.266L148.155 66.758L148.135 66.606L148.062 66.472L147.336 65.134L148.709 64.479L148.847 64.414L148.953 64.303L150 63.199ZM145 44.199L146.047 45.303L146.153 45.413L146.291 45.479L147.664 46.134L146.938 47.471L146.865 47.606L146.845 47.758L146.647 49.266L145.15 48.989L145 48.961L144.85 48.989L143.353 49.266L143.155 47.758L143.135 47.606L143.062 47.471L142.336 46.134L143.709 45.479L143.847 45.414L143.953 45.303L145 44.199ZM152 89.199L153.047 90.303L153.153 90.413L153.291 90.479L154.664 91.134L153.938 92.472L153.865 92.606L153.845 92.758L153.647 94.266L152.15 93.989L152 93.961L151.85 93.989L150.353 94.266L150.155 92.758L150.135 92.606L150.062 92.472L149.336 91.134L150.709 90.479L150.847 90.414L150.953 90.303L152 89.199ZM125 104.199L126.047 105.303L126.153 105.414L126.291 105.479L127.664 106.134L126.938 107.471L126.865 107.606L126.845 107.758L126.647 109.266L125.15 108.989L125 108.961L124.85 108.989L123.353 109.266L123.155 107.758L123.135 107.606L123.062 107.471L122.336 106.134L123.709 105.479L123.847 105.414L123.953 105.303L125 104.199ZM148 120.199L149.047 121.303L149.153 121.414L149.291 121.479L150.664 122.134L149.938 123.471L149.865 123.606L149.845 123.758L149.647 125.266L148.15 124.989L148 124.961L147.85 124.989L146.353 125.266L146.155 123.758L146.135 123.606L146.062 123.471L145.336 122.134L146.709 121.479L146.847 121.414L146.953 121.303L148 120.199ZM132 121.199L133.047 122.303L133.153 122.414L133.291 122.479L134.664 123.134L133.938 124.471L133.865 124.606L133.845 124.758L133.647 126.266L132.15 125.989L132 125.961L131.85 125.989L130.353 126.266L130.155 124.758L130.135 124.606L130.062 124.471L129.336 123.134L130.709 122.479L130.847 122.414L130.953 122.303L132 121.199ZM144 132.199L145.047 133.303L145.153 133.414L145.291 133.479L146.664 134.134L145.938 135.471L145.865 135.606L145.845 135.758L145.647 137.266L144.15 136.989L144 136.961L143.85 136.989L142.353 137.266L142.155 135.758L142.135 135.606L142.062 135.471L141.336 134.134L142.709 133.479L142.847 133.414L142.953 133.303L144 132.199ZM132 133.199L133.047 134.303L133.153 134.414L133.291 134.479L134.664 135.134L133.938 136.471L133.865 136.606L133.845 136.758L133.647 138.266L132.15 137.989L132 137.961L131.85 137.989L130.353 138.266L130.155 136.758L130.135 136.606L130.062 136.471L129.336 135.134L130.709 134.479L130.847 134.414L130.953 134.303L132 133.199ZM170 130.199L171.047 131.303L171.153 131.414L171.291 131.479L172.664 132.134L171.938 133.471L171.865 133.606L171.845 133.758L171.647 135.266L170.15 134.989L170 134.961L169.85 134.989L168.353 135.266L168.155 133.758L168.135 133.606L168.062 133.471L167.336 132.134L168.709 131.479L168.847 131.414L168.953 131.303L170 130.199ZM59 97.199L60.047 98.303L60.153 98.413L60.291 98.479L61.664 99.134L60.938 100.471L60.865 100.606L60.845 100.758L60.647 102.266L59.15 101.989L59 101.961L58.85 101.989L57.353 102.266L57.155 100.758L57.135 100.606L57.062 100.471L56.336 99.134L57.709 98.479L57.847 98.414L57.953 98.303L59 97.199Z" stroke="#E6E6E6" stroke-width="1.65"/>
</svg>
