<svg width="230" height="183" fill="none" xmlns="http://www.w3.org/2000/svg"><path d="M164.351 85.877c-1.035-2.896-16-1.5-16-1.5s-.5 15 .5 16.5 14.5.5 14.5.5 2.034-12.604 1-15.5z" stroke="#191919" stroke-width="1.649"/><circle cx="156.851" cy="87.877" r="1" fill="#191919"/><ellipse cx="147" cy="179.5" rx="46" ry="1.5" fill="#191919"/><path d="M105 58.199l1.047 1.104.106.11.138.066 1.373.655-.726 1.337-.073.135-.02.152-.198 1.508-1.497-.277-.15-.028-.15.028-1.497.277-.198-1.508-.02-.152-.073-.135-.726-1.337 1.373-.655.138-.065.106-.111L105 58.199zm69-13l1.047 1.104.106.11.138.066 1.373.655-.726 1.337-.073.135-.02.152-.198 1.508-1.497-.277-.15-.028-.15.028-1.497.277-.198-1.508-.02-.152-.073-.135-.726-1.337 1.373-.655.138-.065.106-.111L174 45.199zm-12-12l1.047 1.104.106.11.138.066 1.373.655-.726 1.337-.073.135-.02.152-.198 1.508-1.497-.277-.15-.028-.15.028-1.497.277-.198-1.508-.02-.152-.073-.135-.726-1.337 1.373-.655.138-.065.106-.111L162 33.199zm4 31l1.047 1.104.106.11.138.066 1.373.655-.726 1.338-.073.134-.02.152-.198 1.508-1.497-.277-.15-.028-.15.028-1.497.277-.198-1.508-.02-.152-.073-.134-.726-1.338 1.373-.655.138-.065.106-.111L166 64.199zm14-4l1.047 1.104.106.11.138.066 1.373.655-.726 1.337-.073.135-.02.152-.198 1.508-1.497-.277-.15-.028-.15.028-1.497.277-.198-1.508-.02-.152-.073-.135-.726-1.337 1.373-.655.138-.065.106-.111L180 60.199zm-26 54l1.047 1.104.106.111.138.065 1.373.655-.726 1.337-.073.135-.02.152-.198 1.508-1.497-.277-.15-.028-.15.028-1.497.277-.198-1.508-.02-.152-.073-.135-.726-1.337 1.373-.655.138-.065.106-.111 1.047-1.104zm19-32l1.047 1.104.106.11.138.066 1.373.655-.726 1.338-.073.134-.02.152-.198 1.508-1.497-.277-.15-.028-.15.028-1.497.277-.198-1.508-.02-.152-.073-.134-.726-1.338 1.373-.655.138-.065.106-.111L173 82.199zm19-1l1.047 1.104.106.11.138.066 1.373.655-.726 1.338-.073.134-.02.152-.198 1.508-1.497-.277-.15-.028-.15.028-1.497.277-.198-1.508-.02-.152-.073-.134-.726-1.338 1.373-.655.138-.065.106-.111L192 81.199zm5-15l1.047 1.104.106.11.138.066 1.373.655-.726 1.338-.073.134-.02.152-.198 1.508-1.497-.277-.15-.028-.15.028-1.497.277-.198-1.508-.02-.152-.073-.134-.726-1.338 1.373-.655.138-.065.106-.111L197 66.199zm-36 66l1.047 1.104.106.111.138.065 1.373.655-.726 1.337-.073.135-.02.152-.198 1.508-1.497-.277-.15-.028-.15.028-1.497.277-.198-1.508-.02-.152-.073-.135-.726-1.337 1.373-.655.138-.065.106-.111 1.047-1.104zm-15-4l1.047 1.104.106.111.138.065 1.373.655-.726 1.337-.073.135-.02.152-.198 1.508-1.497-.277-.15-.028-.15.028-1.497.277-.198-1.508-.02-.152-.073-.135-.726-1.337 1.373-.655.138-.065.106-.111 1.047-1.104zm-29-17l1.047 1.104.106.111.138.065 1.373.655-.726 1.337-.073.135-.02.152-.198 1.508-1.497-.277-.15-.028-.15.028-1.497.277-.198-1.508-.02-.152-.073-.135-.726-1.337 1.373-.655.138-.065.106-.111 1.047-1.104zm4-19l1.047 1.104.106.11.138.066 1.373.655-.726 1.338-.073.134-.02.152-.198 1.508-1.497-.277-.15-.028-.15.028-1.497.277-.198-1.508-.02-.152-.073-.134-.726-1.338 1.373-.655.138-.065.106-.111L121 92.199zm-10-10l1.047 1.104.106.11.138.066 1.373.655-.726 1.338-.073.134-.02.152-.198 1.508-1.497-.277-.15-.028-.15.028-1.497.277-.198-1.508-.02-.152-.073-.134-.726-1.338 1.373-.655.138-.065.106-.111L111 82.199zm-12 27l1.047 1.104.106.111.138.065 1.373.655-.726 1.337-.073.135-.02.152-.198 1.508-1.497-.277-.15-.028-.15.028-1.497.277-.198-1.508-.02-.152-.073-.135-.726-1.337 1.373-.655.138-.065.106-.111L99 109.199zm1-18l1.047 1.104.106.11.138.066 1.373.655-.726 1.338-.073.134-.02.152-.198 1.508-1.497-.277-.15-.028-.15.028-1.497.277-.198-1.508-.02-.152-.073-.134-.726-1.338 1.373-.655.138-.065.106-.111L100 91.199zm25 40l1.047 1.104.106.111.138.065 1.373.655-.726 1.337-.073.135-.02.152-.198 1.508-1.497-.277-.15-.028-.15.028-1.497.277-.198-1.508-.02-.152-.073-.135-.726-1.337 1.373-.655.138-.065.106-.111 1.047-1.104z" stroke="#191919" stroke-width="1.65"/><path fill-rule="evenodd" clip-rule="evenodd" d="M154.479 51.685a44.946 44.946 0 01-4.565 6.043 39.046 39.046 0 01-5.737 5.228 6.554 6.554 0 01-3.904 1.29h-9.632a6.548 6.548 0 01-3.906-1.292 39.08 39.08 0 01-5.73-5.226 45.162 45.162 0 01-4.561-6.029 7.82 7.82 0 01-1.096-5.565c.92-5.143 1.971-9.82 3.149-14.031 1.083-3.869 2.789-8.927 5.117-15.172a8.742 8.742 0 018.191-5.69h6.432l.654 1.227 3.433-1.619.312 2.266 2.96.365c1.045 2.087 1.581 3.17 1.611 3.251 2.371 6.39 4.109 11.518 5.212 15.384 1.189 4.162 2.241 8.84 3.156 14.03a7.802 7.802 0 01-1.096 5.54z" fill="#191919"/><path fill-rule="evenodd" clip-rule="evenodd" d="M145.516 35.011c.891.064 1.741.168 2.217.328.614.205 1.046.453 1.325.78.275.324.422.746.422 1.341 0 .628-.038 1.807-.44 2.985-.4 1.173-1.156 2.329-2.583 2.944-1.425.613-3.061.616-4.539.616-.175 0-.88-.097-1.696-.482-.812-.382-1.718-1.041-2.321-2.152-.982-1.809-.951-3.63-.819-4.291l.001-.007.001-.008c.053-.423.742-1.596 3.389-1.929 1.066-.133 2.087-.21 2.706-.21.555 0 1.453.023 2.337.085zm-23.546 0c-.892.064-1.741.168-2.217.328-.614.205-1.046.453-1.325.78-.275.324-.422.746-.422 1.341 0 .628.038 1.807.44 2.985.4 1.173 1.156 2.329 2.583 2.944 1.424.613 3.061.616 4.539.616.175 0 .88-.097 1.697-.482.811-.382 1.717-1.041 2.321-2.152.981-1.809.95-3.63.818-4.291l-.002-.007-.001-.008c-.052-.423-.741-1.596-3.388-1.929-1.066-.133-2.087-.21-2.706-.21-.555 0-1.454.023-2.337.085zm.782-1.336c3.155 0 5.091 0 7.239.641 1.656.494 3.177.758 3.752.832.576-.074 2.095-.338 3.752-.832 2.149-.64 4.083-.64 7.24-.64h.024c2.553 0 5.599.281 6.803.422l.014.001 1.021.254v1.937l-.698.693c-.187.186-.628.781-.79 1.577-.022.115-.046.255-.074.413v.001c-.091.538-.219 1.297-.489 2.062-.353 1-.959 2.05-2.077 2.718-2.158 1.285-3.892 1.503-5.193 1.503h-.006c-.633 0-1.551 0-2.499-.188-.95-.19-1.948-.571-2.729-1.347-1.503-1.495-2.158-2.787-2.382-3.452-.212-.634-.497-1.407-.624-1.657a7.973 7.973 0 00-.057-.117c-.091-.188-.177-.365-.326-.513-.167-.165-.428-.307-.91-.307-.482 0-.742.142-.909.307-.151.148-.236.325-.326.513l-.059.117c-.126.25-.411 1.023-.623 1.657-.223.665-.879 1.957-2.382 3.452-.781.776-1.779 1.157-2.73 1.347-.947.188-1.865.188-2.498.188h-.006c-1.301 0-3.035-.218-5.193-1.503-1.118-.668-1.724-1.718-2.077-2.718-.27-.765-.398-1.524-.49-2.062-.027-.16-.05-.3-.073-.414-.161-.796-.603-1.391-.79-1.577l-.698-.693v-1.937l1.022-.254.013-.001c1.204-.14 4.249-.422 6.804-.422h.024z" fill="#F6F6F6"/><path d="M124.518 36.436a1.28 1.28 0 110 2.56 1.28 1.28 0 010-2.56zm14.911.526c-.393.57-.274 1.372.267 1.787.541.417 1.298.291 1.693-.28.394-.57.275-1.372-.266-1.787-.541-.417-1.299-.29-1.694.28z" fill="#fff"/><path fill-rule="evenodd" clip-rule="evenodd" d="M133.81 55.262c-2.799.021-5.492-.529-8.012 0a5.955 5.955 0 003.521 3.797l.579.228c2.433.955 5.142.955 7.576 0l.58-.228a5.96 5.96 0 003.567-3.956c-2.471-.469-5.068.136-7.811.16z" fill="#F6F6F6"/><path d="M133.541 53.823c1.106-.006 2.215-.082 3.312-.157 2.245-.155 4.436-.305 6.439.157.036-.155.065-.327.08-.534l-.154-1.53c-.188-1.869-1.112-3.58-2.671-4.833l.389-.516a3.17 3.17 0 00.183-3.547c-.663-1.1-1.856-1.78-3.208-1.78-1.23 0-2.417.453-3.509 1.385-.417.178-.899.152-1.549-.104a4.982 4.982 0 00-3.376-1.282 3.681 3.681 0 00-3.156 1.78 3.167 3.167 0 00.139 3.488l.28.648a6.822 6.822 0 00-2.677 4.762l-.151 1.825c.014.15.05.29.097.425 2.047-.517 4.12-.407 6.31-.29 1.044.055 2.115.112 3.222.103z" fill="#F6F6F6"/><path d="M133.541 53.823c1.106-.006 2.215-.082 3.312-.157 2.245-.155 4.436-.305 6.439.157.036-.155.065-.327.08-.534l-.154-1.53c-.188-1.869-1.112-3.58-2.671-4.833l.389-.516a3.17 3.17 0 00.183-3.547c-.663-1.1-1.856-1.78-3.208-1.78-1.23 0-2.417.453-3.509 1.385-.417.178-.899.152-1.549-.104a4.982 4.982 0 00-3.376-1.282 3.681 3.681 0 00-3.156 1.78 3.167 3.167 0 00.139 3.488l.28.648a6.822 6.822 0 00-2.677 4.762l-.151 1.825c.014.15.05.29.097.425 2.047-.517 4.12-.407 6.31-.29 1.044.055 2.115.112 3.222.103z" stroke="#191919"/><path fill-rule="evenodd" clip-rule="evenodd" d="M129.572 43.314l.201-.008a2.297 2.297 0 012.059 1.108l.77 1.28a.91.91 0 01-1.145 1.305l-.68-.295-1.524-.611a1.534 1.534 0 01-.956-1.582c.067-.66.611-1.17 1.275-1.197zm8.343-.066l-.201-.01a2.301 2.301 0 00-2.06 1.11l-.77 1.277a.912.912 0 001.144 1.307l.681-.295 1.523-.611c.636-.254 1.027-.9.957-1.582a1.334 1.334 0 00-1.274-1.196z" fill="#191919"/><path d="M134.214 72.73l2.828-4.175-1.548 5.252 1.952 2.491-1.952 9.629s-2.559-4.31-3.3-7.609c-.74-3.3-2.895-6.8-2.895-6.8l4.915 1.211z" fill="#fff"/><path d="M119.826 30.2s-8.371 3.745-13.084 6.977c-4.713 3.232-12.617 12.711-13.446 14.032-.829 1.32-2.175 38.084-2.175 38.084l1.346 1.886-1.346 1.75 1.346 2.425s-3.097-.54-4.31 1.212l-1.211 1.75-2.02-1.75s-9.09.269-9.696 1.01c-.606.74 7.07 25.991 7.07 25.991l14.073-2.626 13.062-9.158m0 0l-7.002-42.69m7.002 42.69s4.175 31.782 6.465 33.263c2.289 1.482 56.291-.942 56.291-.942" stroke="#191919" stroke-width="1.683"/><path d="M183.144 107.112l21.593-4.722h5.397v43.363h-42.353V102.39h13.78l.57 4.018.128.898.885-.194z" fill="#fff" stroke="#000" stroke-width="1.683"/><path d="M185.142 113.006l14.365-3.142h3.287v28.348H175.12v-28.348h8.663l.346 2.438.127.898.886-.194z" fill="#F6F6F6" stroke="#000" stroke-width="1.683"/><path stroke="#191919" stroke-width="1.683" stroke-linecap="round" d="M86.352 98.253l5.799 23.008M201.3 90.693l-18.821 3.915"/><path d="M117.785 45.661s0 1.885-1.481 14.275c-1.482 12.39 0 16.295 0 16.295l10.1-2.963" stroke="#191919" stroke-width="1.683"/><path d="M120.613 56.3s2.721 10.736 5.925 16.295c3.205 5.558 9.195 14.69 10.245 16.187 1.049 1.497 2.127 5.772 2.127 5.772s3.232 5.024 3.097 6.2c-.135 1.176-.02 10.003-2.309 18.982-2.29 8.979 2.309 25.867 2.309 25.867" stroke="#191919" stroke-width="1.683"/><path d="M136.086 87.745s-.364-.37 0-1.932c.364-1.56 3.771-10.234 3.771-10.234s5.808-6.869 7.137-14.006c1.329-7.137-1.329-15.912-1.329-15.912" stroke="#191919" stroke-width="1.683"/><path d="M152.578 39.062s3.387-1.695 5.069 11.716c1.682 13.412-5.069 27.473-5.069 27.473l-10.35-5.87" stroke="#191919" stroke-width="1.683"/><circle cx="129.299" cy="83.839" r="1.246" stroke="#191919" stroke-width="1.683"/><circle cx="134.147" cy="92.458" r="1.246" stroke="#191919" stroke-width="1.683"/><circle cx="137.918" cy="102.491" r="1.246" stroke="#191919" stroke-width="1.683"/><circle cx="136.234" cy="112.524" r="1.246" stroke="#191919" stroke-width="1.683"/><circle cx="134.888" cy="124.375" r="1.246" stroke="#191919" stroke-width="1.683"/><circle cx="135.225" cy="132.993" r="1.246" stroke="#191919" stroke-width="1.683"/><path d="M147.964 20.514s8.128-1.401 19.446 3.33c12.199 5.1 27.689 16.388 28.765 17.207 2.074 1.58 7.394 38.816 7.124 40.028-.269 1.212-2.154 1.346-2.02 2.424.135 1.077 3.502 2.154 3.569 3.03.067.875-2.424 2.424-2.559 3.568-.134 1.145 2.559 11.043 2.222 11.919-.336.875-20.671 5.386-21.748 4.848-1.078-.539-.943-13.265-.943-13.265l8.955-36.832" stroke="#191919" stroke-width="1.683"/><path d="M183.503 106.935l20.686-4.848s1.884 41.055 1.382 41.863c-.502.808-3.894 1.817-10.551.808-6.657-1.01-7.001-.386-7.881-2.068-.879-1.683-3.636-35.755-3.636-35.755zm-108.004-5.117l7.349 21.485s-22.184 3.477-22.701 3.024c-.518-.452 3.434-1.077-4.31-9.292-7.743-8.215-6.563-8.541-5.858-9.629.705-1.087 25.52-5.588 25.52-5.588zm47.74-38.145s6.464 2.862 13.736 2.39c7.272-.471 9.865-1.75 9.865-1.75l-3.367 6.531-2.693 3.737-4.748 10.807 3.165 10.067-2.39-6.633-12.625-20.705-.943-4.444z" fill="#191919"/><ellipse cx="16.918" cy="98.316" rx="10.774" ry="54.406" fill="#191919"/><path d="M30.015 98.316c0 14.978-1.444 28.512-3.764 38.277-1.162 4.889-2.533 8.787-4.024 11.442-1.53 2.724-3.016 3.846-4.299 3.846-1.282 0-2.768-1.122-4.298-3.846-1.492-2.655-2.863-6.553-4.025-11.442-2.32-9.765-3.763-23.299-3.763-38.277 0-14.978 1.443-28.511 3.763-38.276 1.162-4.89 2.533-8.787 4.025-11.442 1.53-2.724 3.016-3.846 4.298-3.846 1.283 0 2.768 1.122 4.299 3.846 1.491 2.655 2.862 6.553 4.024 11.442 2.32 9.765 3.764 23.298 3.764 38.276z" stroke="#191919" stroke-width="1.683"/><path d="M201.796 141.669c-2.458.168-1.728 1.294-2.236 3.062-.508 1.768-3.457 3.319-1.69 3.452s6.755-1.191 7.263-2.959.641-3.828-3.337-3.555z" fill="#fff" stroke="#191919" stroke-width="1.683"/><path d="M199.325 141.679c-2.457.168-1.727 1.294-2.235 3.062-.508 1.767-3.457 3.319-1.69 3.452s6.755-1.192 7.263-2.959c.508-1.768.641-3.828-3.338-3.555z" fill="#fff" stroke="#191919" stroke-width="1.683"/><path d="M197.428 141.708c-2.383-.038-2.284 1.259-3.675 3.145-1.39 1.887-4.948 3.316-3.366 3.621 1.582.305 6.928-.691 8.318-2.578 1.391-1.886 2.582-4.126-1.277-4.188z" fill="#fff" stroke="#191919" stroke-width="1.683"/><path d="M192.605 141.575c-2.411 0-2.398 1.413-3.933 3.496-1.535 2.082-3.383-.435-3.149 2.534.235 2.969 6.56.599 8.095-1.483 1.535-2.083 2.892-4.547-1.013-4.547zM47.033 125.099c-2.336-.103-2.092.997-3.237 2.551-1.145 1.554-2.688 1.321-.805 3.22 1.883 1.899 4.622-.637 5.767-2.191 1.145-1.554 2.056-3.412-1.725-3.58z" fill="#fff" stroke="#191919" stroke-width="1.683"/><path d="M42.913 122.39c-2.358-.073-2.184 1.121-3.446 2.834-1.262 1.712-2.809 1.485-1.027 3.522 1.781 2.036 4.722-.774 5.984-2.487 1.262-1.712 2.307-3.752-1.511-3.869z" fill="#fff" stroke="#191919" stroke-width="1.683"/><path d="M36.592 127.799c2.154-.165 1.855-1.205 2.801-2.845.947-1.639 2.381-1.588.52-3.219-1.861-1.632-4.206 1.143-5.152 2.782-.947 1.64-1.657 3.549 1.83 3.282zm14.55-1.076c-1.46.059-1.584 1.067-2.707 2.591-1.123 1.524-2.045 1.409-1.33 3.054.716 1.644 3.102-.901 4.225-2.425 1.123-1.524 2.174-3.316-.188-3.22zm137.36 12.558c.657 4.284-.309 2.111-2.084 4.52-1.776 2.409 2.815.794-1.315 3.38s-5.133-1.76-3.357-4.169c1.775-2.409 6.368-6.255 6.756-3.731zM52 108.484c4.062 4.049 3.568 1.683-.636 6.262-2.5 3.392-1.562 5.723-4.213 5.723-2.65 0-4.048-6.91-1.548-10.302 2.5-3.392 5.55-2.527 6.396-1.683z" fill="#fff" stroke="#191919" stroke-width="1.683"/><path transform="matrix(-.97705 -.213 -.37024 .92894 193.311 146.87)" stroke="#191919" stroke-width="1.683" stroke-linecap="round" d="M.842-.842H2.03"/><path transform="matrix(-.97705 -.213 -.37024 .92894 184.087 146.197)" stroke="#191919" stroke-width="1.683" stroke-linecap="round" d="M.842-.842H2.03"/><path transform="matrix(-.97705 -.213 -.37024 .92894 198.631 146.601)" stroke="#191919" stroke-width="1.683" stroke-linecap="round" d="M.842-.842H2.03"/><path transform="matrix(-.97705 -.213 -.37024 .92894 203.075 146.533)" stroke="#191919" stroke-width="1.683" stroke-linecap="round" d="M.842-.842H2.03"/><path d="M156.165 143.969l-34.34 1.347 4.683 23.297 18.853 6.464 10.804-31.108z" fill="#191919"/><path d="M178.52 145.45h-9.255l-1.787-1.077-21.682 1.077 5.656 24.914 17.813 1.212 9.255-26.126z" fill="#191919"/><path d="M143.775 172.938s1.87 4.647 1.575 5.252c-.296.606-29.754-.606-29.754-.606s-.135-2.761.639-3.704c.775-.942 12.019-6.565 12.019-6.565m-12.504 8.047l28.82.471" stroke="#191919" stroke-width="1.683"/><path d="M121.689 170.514s3.232.808 3.939 1.919c.707 1.111 1.173 3.541 1.173 3.541m1.15-5.494s.577 1.658 1.212 2.693c.636 1.035 2.47 2.834 2.47 2.834m-1.042-5.527s.577 1.658 1.212 2.693c.635 1.035 2.47 2.834 2.47 2.834m-.989-5.527s.577 1.658 1.212 2.693c.636 1.035 2.47 2.834 2.47 2.834m9.953.055l24.62-.571m-22.854-2.509s5.258-3.128 7.25-2.2c1.993.929 4.837 4.472 4.837 4.472m1.857-5.791s.577 1.658 1.212 2.694c.636 1.035 2.47 2.833 2.47 2.833m-1.392-5.258s.576 1.659 1.212 2.694c.635 1.035 2.47 2.833 2.47 2.833m-1.288-5.87s.28 1.733.726 2.863c.446 1.129 1.94 3.219 1.94 3.219" stroke="#191919" stroke-width="1.683"/><path d="M169.509 167.976s2.29 9.764 1.65 10.577c-.639.814-23.836.601-23.836.601s-.539-2.823 0-3.967c.539-1.145 4.848-6.869 4.848-6.869M50.756 115.809l9.965 4.915s.975 4.526-1.18 6.546c-2.155 2.02-7.878 2.828-7.878 2.828" stroke="#191919" stroke-width="1.683"/><path d="M34.29 113.231s5.116.236 5.925-.202c.809-.438 1.28-2.256 2.964-2.929 1.683-.674 2.558-.606 2.558-.606m-13.265 11.985l3.874 1.804" stroke="#000" stroke-width="1.683"/><path d="M23.652 104.646s9.157 1.952 9.696 4.174c.538 2.223-1.482 13.535-4.377 15.689-2.895 2.155-9.023-1.01-9.023-1.01l3.704-18.853z" fill="#191919"/><path d="M32.001 109.696l3.513 1.405-3.098 13.13-5.667-.664" stroke="#191919" stroke-width="1.683"/><path stroke="#000" stroke-width="1.683" d="M179.497 113.13v15.621"/><path d="M97.334 52.416s1.193-2.378 3.213-4.6c2.02-2.222 6.284-4.598 6.284-4.598m74.114-5.5s2.616.484 5.312 1.806c2.697 1.322 6.165 4.757 6.165 4.757M49.923 99.578l5.695-8.949m-11.822 6.013l.56-10.593m-7.476 15.072l-2.936-7.574m31.086 51.599l-6.276-8.552m-23.268 9.973l1.766-10.46m12.697 7.177l-.78-4.492" stroke="#000" stroke-width="1.683" stroke-linecap="round"/><path d="M68.096 11.785l1.784 4.343-5.084 1.852m3.3-6.195l5.858-6.228 7.642 6.785m-13.5-.557l13.888 6.616m13.887 6.615l-13.887-6.615m13.887 6.615L81.596 12.342m14.275 12.674l-15.537-3.518m15.537 3.518l-22.287.13m-8.788-7.166l-3.838 7.238 12.626-.073m-8.788-7.165l15.538 3.518m1.65-3.097l-.388-6.059m-1.262 9.156l-6.75 3.647" stroke="#000" stroke-width="1.683"/><path d="M62.436 13.838S30.995 3.2 50.252 5.018c19.258 1.818-19.059 5.387-19.059 5.387" stroke="#000" stroke-width="1.683" stroke-linecap="round"/></svg>